<svg version="1.1" id="Layer_1" xmlns="http://www.w3.org/2000/svg" xmlns:xlink="http://www.w3.org/1999/xlink" x="0px" y="0px"
	 width="100%" viewBox="0 0 200 200" enable-background="new 0 0 200 200" xml:space="preserve">
<path fill="#FEFEFE" opacity="1.000000" stroke="none" 
	d="
M81.000000,1.000000 
	C120.954964,1.000000 160.909927,1.000000 200.932449,1.000000 
	C200.932449,67.546524 200.932449,134.093124 200.932449,201.000000 
	C178.313705,201.000000 155.625519,201.000000 132.543579,200.671814 
	C133.757965,198.228531 135.366074,196.113419 137.344162,193.953186 
	C138.388428,192.476654 139.710236,190.961746 139.539764,189.639206 
	C139.393539,188.504807 137.540253,187.590439 136.438049,186.512726 
	C136.434189,186.446701 136.440002,186.314560 136.552429,186.073654 
	C136.469437,185.556519 136.274048,185.280273 135.916565,184.818787 
	C135.548416,184.326660 135.537262,184.012848 135.734131,183.355316 
	C135.480438,182.675476 135.213669,182.332397 134.760040,181.820343 
	C134.531738,181.488663 134.490265,181.325928 134.772552,181.019165 
	C134.409317,179.583176 133.722321,178.291214 132.861755,176.817032 
	C132.664017,176.468811 132.639816,176.302811 132.949448,175.933029 
	C135.547470,168.737350 135.546631,168.735596 129.452835,167.773239 
	C124.402420,152.706970 119.553535,137.932449 114.586937,122.799263 
	C111.905083,124.993660 109.454399,126.998909 106.669266,129.118713 
	C99.960693,133.524826 93.586571,137.816376 86.876144,142.049683 
	C84.133286,138.311844 87.987183,137.898514 89.496063,136.204819 
	C90.737137,134.811722 91.762672,133.226593 93.075600,131.443573 
	C93.904388,130.975403 94.685226,130.965698 95.156853,130.578949 
	C103.479431,123.754112 111.764320,116.883301 120.441010,110.025032 
	C122.550896,109.683876 124.277145,109.340126 126.039047,109.280144 
	C126.377647,109.886963 126.680580,110.210007 126.983513,110.533051 
	C127.164459,110.324013 127.345398,110.114975 127.526337,109.905930 
	C127.016342,109.605087 126.506355,109.304253 125.994644,108.602959 
	C125.995079,107.134697 125.997246,106.066895 125.999702,104.999542 
	C126.000000,105.000000 125.999077,104.999405 126.379578,105.005341 
	C135.321106,102.018776 140.499741,95.373108 145.399429,87.987419 
	C147.769089,86.075974 149.890152,84.327293 151.818542,82.387115 
	C155.105667,79.079895 157.918823,75.186432 161.588318,72.406891 
	C165.234863,69.644737 167.366806,66.669647 167.426880,62.007156 
	C169.077072,60.519806 170.952499,59.341957 171.607574,57.682404 
	C172.813354,54.627617 176.254990,51.442348 172.119690,47.668018 
	C171.907013,46.941189 171.806229,46.519920 172.003433,45.984657 
	C172.664474,45.558437 173.226456,45.300999 173.331970,44.917850 
	C173.428360,44.567863 173.030548,44.081787 172.850525,43.655685 
	C171.314270,44.671856 169.029160,39.178474 167.568329,44.271935 
	C166.140625,44.278748 165.100433,44.232395 163.911789,43.857941 
	C162.500076,43.021488 161.236801,42.513134 159.737030,41.728561 
	C157.321762,40.666843 155.143005,39.881344 152.568039,39.110390 
	C144.393906,36.538353 136.615982,33.951775 128.877380,30.970793 
	C128.742050,24.357885 124.152679,29.281809 122.037766,27.508434 
	C121.457405,26.463511 120.769859,25.133366 120.400581,25.216526 
	C119.519287,25.414986 118.788132,26.280149 117.690804,26.876831 
	C116.548553,26.016665 115.711838,25.155741 114.866158,23.912817 
	C110.715691,20.358629 106.230835,18.065592 100.531700,18.019566 
	C99.146507,17.303188 98.081779,16.628359 97.014130,15.544843 
	C96.737267,9.648697 92.425415,12.949528 90.058731,11.976004 
	C90.030243,11.997185 90.024094,11.926466 89.879761,11.708954 
	C89.414024,11.383876 89.092613,11.276309 88.830505,11.145563 
	C88.889816,11.122386 88.825912,11.232545 88.847328,10.854403 
	C87.317757,8.473775 85.620552,4.695643 84.243782,4.809007 
	C80.445053,5.121792 81.102013,3.055426 81.000000,1.000000 
M155.000107,11.203867 
	C154.718185,10.336158 154.436279,9.468450 154.020584,8.188954 
	C151.639328,10.482813 149.610260,12.437400 147.581192,14.391987 
	C147.833221,14.856950 148.085266,15.321914 148.337296,15.786877 
	C149.895264,15.857471 151.453232,15.928064 153.228165,16.780703 
	C153.169556,17.855534 153.110962,18.930363 152.324219,19.997709 
	C151.022995,19.839724 149.721756,19.681740 148.301590,19.509314 
	C149.395645,26.632566 154.876984,25.616508 159.122147,25.730537 
	C162.577423,25.823353 165.248749,23.669672 165.755676,19.574198 
	C164.626816,19.745275 163.822342,19.867191 162.830154,19.653334 
	C162.552383,19.768402 162.274597,19.883471 161.537857,19.993010 
	C161.537857,19.993010 161.078873,19.990574 160.564819,19.450760 
	C160.752579,17.636639 160.940353,15.822518 161.858200,14.007020 
	C163.129593,14.077593 164.400986,14.148167 165.672394,14.218740 
	C165.955750,13.739333 166.239105,13.259927 166.522461,12.780520 
	C164.711090,11.569448 162.899704,10.358375 161.088318,9.147299 
	C160.146149,11.524969 155.623505,7.621917 155.442856,12.013971 
	C155.442856,12.013971 155.014099,11.864208 155.000107,11.203867 
M165.224579,17.678946 
	C165.273438,17.310297 165.322296,16.941648 165.371140,16.573000 
	C165.106705,16.571930 164.842270,16.570862 164.577835,16.569792 
	C164.618546,16.939432 164.659241,17.309074 165.224579,17.678946 
z"/>
<path fill="#FEFEFE" opacity="1.000000" stroke="none" 
	d="
M122.000000,201.000000 
	C81.712532,201.000000 41.425068,201.000000 1.068800,201.000000 
	C1.068800,134.455078 1.068800,67.910057 1.068800,1.000000 
	C22.019485,1.000000 43.041084,1.000000 64.451965,1.339027 
	C60.709404,5.124354 59.413109,9.523976 60.752522,14.637916 
	C61.759861,18.483988 62.862728,22.323563 64.231216,26.052959 
	C67.952843,36.195168 72.442307,46.099895 75.477730,56.436378 
	C78.170189,65.605011 79.319519,75.226791 81.114014,85.003418 
	C82.059608,86.570427 83.041229,87.782555 83.865692,89.309021 
	C82.833824,91.480286 81.959114,93.337219 81.013283,95.404938 
	C80.777260,95.887894 80.537872,96.050247 79.836754,96.071686 
	C75.415405,96.760841 72.177803,98.313065 71.940125,103.328392 
	C71.602333,103.781158 71.330025,103.938393 70.778038,104.089615 
	C70.258194,104.352562 70.071655,104.610054 69.996567,104.969452 
	C70.004448,104.996307 69.950554,104.981178 69.578690,105.038300 
	C68.788460,105.660042 68.370094,106.224655 67.522461,106.974182 
	C66.841736,106.975037 66.590286,106.790993 66.485870,106.419792 
	C66.485291,106.367012 66.337669,106.501396 66.438446,106.920746 
	C65.476379,108.550575 64.265915,109.895424 63.019287,110.910675 
	C62.178917,110.385834 61.374710,110.190598 60.570503,109.995369 
	C60.372765,111.000435 60.175026,112.005508 59.980984,113.268784 
	C60.000576,113.698425 60.016468,113.869858 60.027565,114.016083 
	C60.022766,113.990883 60.055016,114.032166 59.807934,114.124802 
	C59.386597,114.513046 59.212337,114.808655 58.949028,115.317429 
	C58.675545,115.797279 58.425373,115.967155 57.856705,116.123825 
	C57.417755,116.498268 57.231556,116.789108 57.026245,117.042061 
	C57.007141,117.004166 57.072906,117.057838 56.669033,117.036194 
	C52.417706,116.694656 51.696224,118.941917 52.048309,122.051170 
	C52.009819,121.999901 52.103130,122.088150 51.770386,122.035629 
	C46.939159,122.020950 45.054913,124.369095 46.715942,127.913956 
	C46.657013,128.034073 46.432274,128.179291 46.034668,128.145508 
	C44.779484,129.454376 43.921906,130.797028 42.940605,132.428314 
	C41.850624,133.799271 40.884369,134.881607 39.553406,135.972260 
	C34.535179,137.872208 33.978985,138.729675 35.114349,142.414322 
	C33.621220,145.175827 32.092148,147.534622 30.893900,150.050964 
	C26.984039,158.261719 28.954514,161.222687 38.105236,161.123352 
	C39.158085,160.995850 40.067177,160.620514 41.241486,160.120392 
	C41.891609,159.946274 42.276520,159.896942 42.916916,159.855835 
	C43.440636,159.669174 43.708874,159.474289 44.239708,159.157715 
	C44.880695,158.972595 45.259087,158.909180 45.897224,158.850250 
	C46.429630,158.657043 46.702293,158.459351 47.196564,158.133163 
	C47.588417,157.991257 47.758667,157.977829 48.142517,157.933472 
	C48.640060,157.793564 48.845573,157.600937 49.274284,157.148712 
	C50.018467,156.828308 50.461025,156.683792 51.064323,156.861145 
	C53.804523,157.936447 56.383991,158.689880 58.631386,159.675690 
	C55.559837,161.073273 52.820351,162.238525 49.509251,163.646896 
	C60.785614,167.910904 71.385605,171.919144 82.263489,176.146637 
	C87.397209,179.170792 92.253036,181.975723 97.128754,185.150055 
	C99.559647,186.377167 101.970634,187.234879 104.589661,188.130859 
	C104.797699,188.169144 105.113220,188.450958 104.862579,188.718216 
	C105.472107,189.290756 106.332268,189.596039 107.449257,189.918976 
	C107.877678,189.932709 108.049263,189.928772 108.354218,190.093307 
	C108.736076,190.428818 108.905449,190.655090 109.130280,191.200745 
	C109.797302,191.649841 110.329750,191.838745 111.143890,192.125870 
	C111.966293,192.449387 112.507019,192.674683 113.054230,192.937469 
	C113.060707,192.974976 113.133713,192.953552 113.304344,193.256714 
	C114.157776,194.326141 114.760002,195.188751 115.538872,195.840164 
	C117.652550,197.607986 119.841118,199.286240 122.000000,201.000000 
M67.395164,99.198128 
	C67.787018,99.202492 68.178879,99.206863 68.570732,99.211227 
	C68.572380,99.048668 68.584969,98.744812 68.574097,98.743973 
	C68.183655,98.713730 67.791023,98.711792 67.395164,99.198128 
z"/>
<path fill="#2E4874" opacity="1.000000" stroke="none" 
	d="
M81.150032,84.648529 
	C79.319519,75.226791 78.170189,65.605011 75.477730,56.436378 
	C72.442307,46.099895 67.952843,36.195168 64.231216,26.052959 
	C62.862728,22.323563 61.759861,18.483988 60.752522,14.637916 
	C59.413109,9.523976 60.709404,5.124354 64.920624,1.339027 
	C67.041664,1.000000 69.083336,1.000000 71.660545,1.339175 
	C77.739365,4.863081 83.282639,8.047812 88.825912,11.232545 
	C88.825912,11.232545 88.889816,11.122386 88.953796,11.386114 
	C89.353218,11.742049 89.688652,11.834258 90.024094,11.926466 
	C90.024094,11.926466 90.030243,11.997185 90.245880,12.251464 
	C92.646698,13.655005 94.831879,14.804268 97.017059,15.953529 
	C98.081779,16.628359 99.146507,17.303188 100.743958,18.299591 
	C105.809494,20.512383 110.342308,22.403599 114.875122,24.294815 
	C115.711838,25.155741 116.548553,26.016665 117.972511,27.051727 
	C119.353760,27.491833 120.147758,27.757797 121.184097,28.281689 
	C123.896973,29.481474 126.367523,30.423334 128.838074,31.365192 
	C136.615982,33.951775 144.393906,36.538353 152.659348,39.482765 
	C152.621857,40.345963 152.180771,41.017456 151.559113,41.331543 
	C143.462418,45.422321 135.340134,49.462440 127.047913,53.197716 
	C122.724442,52.624565 119.202354,53.398529 118.097443,58.143578 
	C118.074074,58.094559 118.176903,58.129505 117.788048,58.092197 
	C115.271027,59.693672 113.142868,61.332451 110.700500,63.120949 
	C108.262169,65.198967 106.251030,67.272697 103.992264,69.027725 
	C97.724846,73.897408 91.390015,78.683075 84.988556,83.374664 
	C83.953690,84.133102 82.441551,84.240303 81.150032,84.648529 
z"/>
<path fill="#3E5271" opacity="1.000000" stroke="none" 
	d="
M122.454109,201.000000 
	C119.841118,199.286240 117.652550,197.607986 115.538872,195.840164 
	C114.760002,195.188751 114.157776,194.326141 113.713249,193.260132 
	C119.581398,193.165207 124.284851,195.374756 128.103149,199.499725 
	C135.324341,194.997208 136.215149,191.741989 132.338348,184.146271 
	C132.119370,183.717224 132.148804,183.168747 131.986145,182.702530 
	C128.252258,171.999878 124.464172,161.315872 120.785126,150.594452 
	C119.156036,145.847000 117.459412,141.092911 116.298706,136.221451 
	C114.511597,128.720993 114.696167,128.677017 107.164612,129.166000 
	C107.111031,129.112000 107.003708,129.004150 107.003708,129.004150 
	C109.454399,126.998909 111.905083,124.993660 114.586937,122.799263 
	C119.553535,137.932449 124.402420,152.706970 129.503601,168.144440 
	C130.709137,171.250549 131.662369,173.693695 132.615616,176.136826 
	C132.639816,176.302811 132.664017,176.468811 132.859009,177.138702 
	C133.502808,178.816101 133.975800,179.989639 134.448792,181.163177 
	C134.490265,181.325928 134.531738,181.488663 134.779739,182.147705 
	C135.231201,182.993378 135.476120,183.342728 135.721024,183.692093 
	C135.537262,184.012848 135.548416,184.326660 135.895874,185.057983 
	C136.023788,185.831360 136.158020,186.108734 136.440002,186.314560 
	C136.440002,186.314560 136.434189,186.446701 136.470154,186.907867 
	C136.662140,189.578796 136.818161,191.788559 136.974182,193.998306 
	C135.366074,196.113419 133.757965,198.228531 132.074921,200.671814 
	C128.969406,201.000000 125.938812,201.000000 122.454109,201.000000 
z"/>
<path fill="#F1F8F9" opacity="1.000000" stroke="none" 
	d="
M88.847328,10.854403 
	C83.282639,8.047812 77.739365,4.863081 72.098045,1.339175 
	C74.700012,1.000000 77.400032,1.000000 80.550018,1.000000 
	C81.102013,3.055426 80.445053,5.121792 84.243782,4.809007 
	C85.620552,4.695643 87.317757,8.473775 88.847328,10.854403 
z"/>
<path fill="#EDF3F8" opacity="1.000000" stroke="none" 
	d="
M127.224281,53.515312 
	C135.340134,49.462440 143.462418,45.422321 151.559113,41.331543 
	C152.180771,41.017456 152.621857,40.345963 153.055573,39.468220 
	C155.143005,39.881344 157.321762,40.666843 159.356964,41.733952 
	C155.640060,43.882866 152.097839,45.812981 148.486908,47.604599 
	C140.583618,51.525925 132.462143,55.056267 124.817909,59.425354 
	C122.025948,61.021107 120.334145,64.541733 118.075485,67.134491 
	C118.010536,67.084755 118.163361,67.143158 117.783554,67.099213 
	C116.667725,67.784454 115.931702,68.513657 115.111465,69.228317 
	C115.027252,69.213776 115.197754,69.202354 114.805489,69.138474 
	C108.211334,72.467773 101.959312,75.775887 95.871986,79.363472 
	C95.124107,79.804222 95.256752,81.739037 94.595703,82.994560 
	C90.520012,84.502556 85.774193,84.201012 84.022842,88.994682 
	C83.041229,87.782555 82.059608,86.570427 81.114014,85.003418 
	C82.441551,84.240303 83.953690,84.133102 84.988556,83.374664 
	C91.390015,78.683075 97.724846,73.897408 103.992264,69.027725 
	C106.251030,67.272697 108.262169,65.198967 111.054115,63.093475 
	C113.873581,61.320694 116.025246,59.725098 118.176903,58.129505 
	C118.176903,58.129505 118.074074,58.094559 118.463577,58.131813 
	C121.643486,56.617813 124.433884,55.066563 127.224281,53.515312 
z"/>
<path fill="#F5EFEF" opacity="1.000000" stroke="none" 
	d="
M58.963455,159.443329 
	C56.383991,158.689880 53.804523,157.936447 51.307182,156.638367 
	C61.990368,149.797211 72.591431,143.500702 83.529785,137.119980 
	C86.872620,135.266052 89.878174,133.496307 92.883728,131.726562 
	C91.762672,133.226593 90.737137,134.811722 89.496063,136.204819 
	C87.987183,137.898514 84.133286,138.311844 86.825035,142.367828 
	C86.411461,143.506744 85.712700,144.269287 84.706795,145.112701 
	C83.909256,145.591110 83.418854,145.988617 82.745766,146.390961 
	C82.322334,146.510620 82.183617,146.700165 81.981850,146.980850 
	C81.816788,146.997299 81.585609,147.235260 81.256012,147.372925 
	C73.605423,151.488144 66.284439,155.465729 58.963455,159.443329 
z"/>
<path fill="#A94E4B" opacity="1.000000" stroke="none" 
	d="
M171.705429,46.098656 
	C171.806229,46.519920 171.907013,46.941189 172.046082,48.058121 
	C170.781021,51.885803 169.477692,55.017815 168.112732,57.735966 
	C168.217911,56.187199 168.291412,55.029114 168.566757,53.921192 
	C170.233475,47.215111 169.081741,45.941296 162.307938,47.105640 
	C161.823334,47.188942 161.341827,47.346973 160.886826,47.537132 
	C155.766998,49.676872 150.516541,51.559177 145.571121,54.047237 
	C139.327271,57.188553 133.315994,60.796185 127.237373,64.260529 
	C122.795197,66.792213 118.406265,69.417328 113.644653,71.963150 
	C113.064957,71.886841 112.834198,71.848167 112.778229,71.551178 
	C113.701271,70.596031 114.449516,69.899193 115.197754,69.202354 
	C115.197754,69.202354 115.027252,69.213776 115.415268,69.158203 
	C116.589973,68.449463 117.376663,67.796310 118.163361,67.143158 
	C118.163361,67.143158 118.010536,67.084755 118.411369,67.050888 
	C133.088943,57.809441 147.279724,48.431473 164.060242,44.186043 
	C165.100433,44.232395 166.140625,44.278748 167.802246,44.465614 
	C169.517593,45.103638 170.611511,45.601147 171.705429,46.098656 
z"/>
<path fill="#A94E4B" opacity="1.000000" stroke="none" 
	d="
M93.075592,131.443573 
	C89.878174,133.496307 86.872620,135.266052 83.445618,137.031036 
	C83.024178,137.026291 82.855736,136.848526 82.950310,136.524200 
	C89.637154,131.162460 96.386848,126.315208 102.772957,121.028740 
	C108.086868,116.629845 112.973679,111.714996 118.336868,106.897163 
	C119.415398,106.510918 120.206734,106.256195 121.246490,105.837852 
	C121.667648,105.118942 121.840393,104.563644 122.007584,104.004471 
	C122.002045,104.000595 122.014008,104.014343 122.362183,103.959915 
	C124.859421,102.998665 127.008492,102.091835 129.037750,101.477623 
	C127.944977,102.846626 126.972023,103.923019 125.999077,104.999405 
	C125.999077,104.999405 126.000000,105.000000 125.686203,105.104347 
	C123.600723,106.813278 121.829041,108.417854 120.057365,110.022438 
	C111.764320,116.883301 103.479431,123.754112 95.156853,130.578949 
	C94.685226,130.965698 93.904388,130.975403 93.075592,131.443573 
z"/>
<path fill="#FBEDE8" opacity="1.000000" stroke="none" 
	d="
M163.911789,43.857941 
	C147.279724,48.431473 133.088943,57.809441 118.476318,67.100616 
	C120.334145,64.541733 122.025948,61.021107 124.817909,59.425354 
	C132.462143,55.056267 140.583618,51.525925 148.486908,47.604599 
	C152.097839,45.812981 155.640060,43.882866 159.593491,42.010170 
	C161.236801,42.513134 162.500076,43.021488 163.911789,43.857941 
z"/>
<path fill="#3E5271" opacity="1.000000" stroke="none" 
	d="
M85.013931,145.031830 
	C85.712700,144.269287 86.411461,143.506744 87.161346,142.426056 
	C93.586571,137.816376 99.960693,133.524826 106.669266,129.118713 
	C107.003708,129.004150 107.111031,129.112000 107.088974,129.515640 
	C105.946602,133.325638 104.501976,136.156433 100.125877,136.284424 
	C99.040558,136.316147 97.651932,138.101807 97.024887,139.385208 
	C95.206367,143.107254 89.357468,146.008499 85.013931,145.031830 
z"/>
<path fill="#FBEDE8" opacity="1.000000" stroke="none" 
	d="
M167.101700,62.099384 
	C167.366806,66.669647 165.234863,69.644737 161.588318,72.406891 
	C157.918823,75.186432 155.105667,79.079895 151.818542,82.387115 
	C149.890152,84.327293 147.769089,86.075974 145.277740,87.868683 
	C144.820786,87.826569 144.578201,87.590691 144.672913,87.335800 
	C144.872864,86.738091 144.978119,86.395264 145.046234,86.029823 
	C145.009094,86.007210 145.054001,86.081696 145.336487,85.983154 
	C146.108139,85.275826 146.597275,84.667046 147.047333,84.032822 
	C147.008255,84.007378 147.060013,84.084969 147.323013,83.995483 
	C147.896317,83.468597 148.206619,83.031204 148.507904,82.539558 
	C148.498901,82.485313 148.607208,82.504356 148.860779,82.412163 
	C149.436005,81.899414 149.757645,81.478859 150.041931,81.031372 
	C150.004593,81.004448 150.058380,81.079155 150.373260,80.963669 
	C152.557877,78.608315 154.427628,76.368446 156.495117,74.031647 
	C156.912811,73.718460 157.033722,73.456505 157.360382,72.998161 
	C160.667755,69.138657 163.670380,65.429832 166.780701,61.815010 
	C166.888397,61.909016 167.101700,62.099384 167.101700,62.099384 
z"/>
<path fill="#F0F0F0" opacity="1.000000" stroke="none" 
	d="
M161.078873,19.990574 
	C161.078873,19.990574 161.537857,19.993010 162.022644,19.995022 
	C162.677567,19.994392 162.847733,19.991749 163.017883,19.989107 
	C163.822342,19.867191 164.626816,19.745275 165.755676,19.574198 
	C165.248749,23.669672 162.577423,25.823353 159.122147,25.730537 
	C154.876984,25.616508 149.395645,26.632566 148.301590,19.509314 
	C149.721756,19.681740 151.022995,19.839724 152.845261,20.310822 
	C154.504333,20.498087 155.642349,20.372238 156.780380,20.246389 
	C156.731064,19.770029 156.681747,19.293667 156.632446,18.817307 
	C157.689514,19.796703 158.746582,20.776100 159.803665,21.755497 
	C160.228745,21.167191 160.653809,20.578884 161.078873,19.990574 
z"/>
<path fill="#545454" opacity="1.000000" stroke="none" 
	d="
M160.821838,19.720669 
	C160.653809,20.578884 160.228745,21.167191 159.803665,21.755497 
	C158.746582,20.776100 157.689514,19.796703 156.632446,18.817307 
	C156.681747,19.293667 156.731064,19.770029 156.780380,20.246389 
	C155.642349,20.372238 154.504333,20.498087 153.209320,20.314564 
	C153.110962,18.930363 153.169556,17.855534 153.230530,16.018158 
	C153.826630,14.125146 154.420364,12.994676 155.014099,11.864207 
	C155.014099,11.864208 155.442856,12.013971 155.682129,12.036575 
	C155.921402,12.059179 155.857513,12.063294 155.954681,12.303292 
	C156.354645,12.635434 156.657471,12.727578 157.332657,12.875738 
	C158.846054,13.290634 159.987091,13.649516 161.128113,14.008398 
	C160.940353,15.822518 160.752579,17.636639 160.821838,19.720669 
z"/>
<path fill="#FBEDE8" opacity="1.000000" stroke="none" 
	d="
M126.379578,105.005341 
	C126.972023,103.923019 127.944977,102.846626 129.017822,101.469193 
	C129.117722,101.168137 129.138290,101.177177 129.455399,101.097481 
	C130.956650,99.791443 132.140793,98.565102 133.235565,97.158142 
	C133.146194,96.977531 133.345840,97.328812 133.652802,97.241776 
	C135.197937,95.979889 136.436096,94.805038 137.898529,93.495392 
	C138.557114,92.831841 138.991409,92.303093 139.513855,91.706100 
	C139.602036,91.637840 139.738708,91.461624 140.009277,91.336357 
	C141.712631,90.004288 143.145416,88.797485 144.578201,87.590683 
	C144.578201,87.590691 144.820786,87.826569 144.942474,87.945312 
	C140.499741,95.373108 135.321106,102.018776 126.379578,105.005341 
z"/>
<path fill="#F2F2F2" opacity="1.000000" stroke="none" 
	d="
M161.493164,14.007710 
	C159.987091,13.649516 158.846054,13.290634 157.203033,12.682354 
	C156.459366,12.219648 156.178192,12.096428 155.857513,12.063294 
	C155.857513,12.063294 155.921402,12.059179 155.903748,12.086062 
	C155.623505,7.621917 160.146149,11.524969 161.088318,9.147301 
	C162.899704,10.358375 164.711090,11.569448 166.522461,12.780520 
	C166.239105,13.259927 165.955750,13.739333 165.672394,14.218740 
	C164.400986,14.148167 163.129593,14.077593 161.493164,14.007710 
z"/>
<path fill="#FBEDE8" opacity="1.000000" stroke="none" 
	d="
M168.174362,58.149830 
	C169.477692,55.017815 170.781021,51.885803 172.157959,48.363686 
	C176.254990,51.442348 172.813354,54.627617 171.607574,57.682404 
	C170.952499,59.341957 169.077072,60.519806 167.426880,62.007156 
	C167.101700,62.099384 166.888397,61.909016 166.884521,61.504173 
	C167.310745,60.109665 167.740860,59.120003 168.162491,58.119213 
	C168.154007,58.108086 168.174362,58.149830 168.174362,58.149830 
z"/>
<path fill="#F0F0F0" opacity="1.000000" stroke="none" 
	d="
M155.007111,11.534037 
	C154.420364,12.994676 153.826630,14.125146 153.122040,15.627136 
	C151.453232,15.928064 149.895264,15.857471 148.337296,15.786877 
	C148.085266,15.321914 147.833221,14.856950 147.581192,14.391987 
	C149.610260,12.437400 151.639328,10.482813 154.020584,8.188954 
	C154.436279,9.468450 154.718185,10.336158 155.007111,11.534037 
z"/>
<path fill="#F1F8F9" opacity="1.000000" stroke="none" 
	d="
M114.866158,23.912815 
	C110.342308,22.403599 105.809494,20.512383 101.064423,18.341141 
	C106.230835,18.065592 110.715691,20.358629 114.866158,23.912815 
z"/>
<path fill="#EFF6F8" opacity="1.000000" stroke="none" 
	d="
M132.949448,175.933029 
	C131.662369,173.693695 130.709137,171.250549 129.705139,168.436218 
	C135.546631,168.735596 135.547470,168.737350 132.949448,175.933029 
z"/>
<path fill="#EFF6F8" opacity="1.000000" stroke="none" 
	d="
M137.344162,193.953186 
	C136.818161,191.788559 136.662140,189.578796 136.473999,186.973907 
	C137.540253,187.590439 139.393539,188.504807 139.539764,189.639206 
	C139.710236,190.961746 138.388428,192.476654 137.344162,193.953186 
z"/>
<path fill="#EBF3F6" opacity="1.000000" stroke="none" 
	d="
M128.877380,30.970795 
	C126.367523,30.423334 123.896973,29.481474 121.468437,28.249184 
	C121.698723,27.927755 121.887001,27.896755 122.075272,27.865753 
	C124.152679,29.281809 128.742050,24.357885 128.877380,30.970795 
z"/>
<path fill="#F1F8F9" opacity="1.000000" stroke="none" 
	d="
M97.014130,15.544844 
	C94.831879,14.804268 92.646698,13.655005 90.274368,12.230283 
	C92.425415,12.949528 96.737267,9.648697 97.014130,15.544844 
z"/>
<path fill="#FBEDE8" opacity="1.000000" stroke="none" 
	d="
M120.441010,110.025032 
	C121.829041,108.417854 123.600723,106.813278 125.685898,105.103889 
	C125.997246,106.066895 125.995079,107.134697 125.996460,108.601257 
	C126.000000,109.000000 126.003387,108.996376 126.003387,108.996368 
	C124.277145,109.340126 122.550896,109.683876 120.441010,110.025032 
z"/>
<path fill="#FBEDE8" opacity="1.000000" stroke="none" 
	d="
M172.003433,45.984657 
	C170.611511,45.601147 169.517593,45.103638 168.189758,44.412453 
	C169.029160,39.178474 171.314270,44.671856 172.850525,43.655685 
	C173.030548,44.081787 173.428360,44.567863 173.331970,44.917850 
	C173.226456,45.300999 172.664474,45.558437 172.003433,45.984657 
z"/>
<path fill="#F1F8F9" opacity="1.000000" stroke="none" 
	d="
M122.037766,27.508434 
	C121.887001,27.896755 121.698723,27.927755 121.226105,27.991257 
	C120.147758,27.757797 119.353760,27.491833 118.278046,27.050968 
	C118.788132,26.280149 119.519287,25.414986 120.400581,25.216526 
	C120.769859,25.133366 121.457405,26.463511 122.037766,27.508434 
z"/>
<path fill="#EFF6F8" opacity="1.000000" stroke="none" 
	d="
M134.772552,181.019165 
	C133.975800,179.989639 133.502808,178.816101 133.032562,177.320892 
	C133.722321,178.291214 134.409317,179.583176 134.772552,181.019165 
z"/>
<path fill="#FBEDE8" opacity="1.000000" stroke="none" 
	d="
M125.998184,109.001709 
	C126.506355,109.304253 127.016342,109.605087 127.526337,109.905930 
	C127.345398,110.114975 127.164459,110.324013 126.983513,110.533051 
	C126.680580,110.210007 126.377647,109.886963 126.039047,109.280151 
	C126.003387,108.996376 126.000000,109.000000 125.998184,109.001709 
z"/>
<path fill="#F2F2F2" opacity="1.000000" stroke="none" 
	d="
M164.962265,17.678829 
	C164.659241,17.309074 164.618546,16.939432 164.577835,16.569792 
	C164.842270,16.570862 165.106705,16.571930 165.371140,16.573000 
	C165.322296,16.941648 165.273438,17.310297 164.962265,17.678829 
z"/>
<path fill="#F1F8F9" opacity="1.000000" stroke="none" 
	d="
M89.879761,11.708954 
	C89.688652,11.834258 89.353218,11.742049 88.894485,11.409291 
	C89.092613,11.276309 89.414024,11.383876 89.879761,11.708954 
z"/>
<path fill="#EFF6F8" opacity="1.000000" stroke="none" 
	d="
M136.552429,186.073654 
	C136.158020,186.108734 136.023788,185.831360 136.057953,185.243256 
	C136.274048,185.280273 136.469437,185.556519 136.552429,186.073654 
z"/>
<path fill="#EFF6F8" opacity="1.000000" stroke="none" 
	d="
M135.734131,183.355316 
	C135.476120,183.342728 135.231201,182.993378 134.966583,182.316666 
	C135.213669,182.332397 135.480438,182.675476 135.734131,183.355316 
z"/>
<path fill="#F2F2F2" opacity="1.000000" stroke="none" 
	d="
M162.924011,19.821220 
	C162.847733,19.991749 162.677567,19.994392 162.252121,19.997787 
	C162.274597,19.883471 162.552383,19.768402 162.924011,19.821220 
z"/>
<path fill="#2C4675" opacity="1.000000" stroke="none" 
	d="
M84.706795,145.112701 
	C89.357468,146.008499 95.206367,143.107254 97.024887,139.385208 
	C97.651932,138.101807 99.040558,136.316147 100.125877,136.284424 
	C104.501976,136.156433 105.946602,133.325638 107.142548,129.569641 
	C114.696167,128.677017 114.511597,128.720993 116.298706,136.221451 
	C117.459412,141.092911 119.156036,145.847000 120.785126,150.594452 
	C124.464172,161.315872 128.252258,171.999878 131.986145,182.702530 
	C132.148804,183.168747 132.119370,183.717224 132.338348,184.146271 
	C136.215149,191.741989 135.324341,194.997208 128.103149,199.499725 
	C124.284851,195.374756 119.581398,193.165207 113.542618,192.956970 
	C113.133713,192.953552 113.060707,192.974976 112.979927,192.599396 
	C112.143822,191.878845 111.388504,191.533844 110.357964,191.154053 
	C109.720406,191.059708 109.358055,191.000137 108.995712,190.940582 
	C108.905449,190.655090 108.736076,190.428818 108.499527,189.941223 
	C107.993103,189.444489 107.474739,189.268295 106.712296,189.052124 
	C106.016556,188.825058 105.564888,188.638000 105.113220,188.450958 
	C105.113220,188.450958 104.797699,188.169144 104.368652,187.911682 
	C101.662697,186.696350 99.385780,185.738495 97.108871,184.780640 
	C92.253036,181.975723 87.397209,179.170792 82.225540,175.796036 
	C81.058922,173.649902 80.208145,172.073608 79.357368,170.497299 
	C79.198074,170.871170 79.038773,171.245041 78.879478,171.618912 
	C72.161354,168.983124 65.443230,166.347351 58.725109,163.711578 
	C58.772907,163.009460 58.820705,162.307343 58.868500,161.605225 
	C60.841812,161.082504 63.020500,160.929184 64.749901,159.967728 
	C69.921989,157.092361 74.980453,153.995438 79.927414,150.747604 
	C80.850784,150.141373 81.051430,148.434296 81.585609,147.235260 
	C81.585609,147.235260 81.816788,146.997299 82.146202,146.939087 
	C82.691734,146.775650 82.842682,146.610733 82.928452,146.386124 
	C83.418854,145.988617 83.909256,145.591110 84.706795,145.112701 
M125.483475,168.586258 
	C125.483475,168.586258 125.418579,168.476822 125.483475,168.586258 
z"/>
<path fill="#A94E4B" opacity="1.000000" stroke="none" 
	d="
M83.108337,137.115234 
	C72.591431,143.500702 61.990368,149.797211 51.146442,156.316498 
	C50.461025,156.683792 50.018467,156.828308 49.047531,157.148254 
	C48.197502,157.422165 48.000759,157.635742 47.928917,157.964417 
	C47.758667,157.977829 47.588417,157.991257 46.932854,158.114883 
	C46.177521,158.431992 45.907501,158.638885 45.637482,158.845779 
	C45.259087,158.909180 44.880695,158.972595 43.977364,159.128296 
	C43.188759,159.429596 42.925095,159.638611 42.661430,159.847626 
	C42.276520,159.896942 41.891609,159.946274 40.923344,160.065826 
	C39.547150,160.382538 38.754314,160.629013 37.961479,160.875488 
	C28.954514,161.222687 26.984039,158.261719 30.893900,150.050964 
	C32.092148,147.534622 33.621220,145.175827 35.391708,142.250885 
	C37.162449,139.825897 38.540276,137.894913 39.918106,135.963943 
	C40.884369,134.881607 41.850624,133.799271 43.236107,132.276550 
	C44.580978,130.617218 45.506626,129.398254 46.432274,128.179291 
	C46.432274,128.179291 46.657013,128.034073 46.959892,127.807831 
	C47.728291,127.318726 48.193806,127.055862 48.742573,127.147095 
	C47.840294,129.195511 46.970417,130.971024 45.848392,132.569534 
	C41.864613,138.245041 37.984413,144.009781 33.693249,149.447357 
	C30.660690,153.290070 32.052315,156.427841 33.842876,159.798218 
	C37.064190,158.511017 39.845695,156.780029 42.821239,156.328888 
	C51.129585,155.069244 57.848640,150.767868 64.740723,146.427032 
	C70.503853,142.797241 76.797188,140.009277 82.855728,136.848511 
	C82.855736,136.848526 83.024178,137.026291 83.108337,137.115234 
z"/>
<path fill="#3E5271" opacity="1.000000" stroke="none" 
	d="
M81.256012,147.372925 
	C81.051430,148.434296 80.850784,150.141373 79.927414,150.747604 
	C74.980453,153.995438 69.921989,157.092361 64.749901,159.967728 
	C63.020500,160.929184 60.841812,161.082504 58.868500,161.605225 
	C58.820705,162.307343 58.772907,163.009460 58.725109,163.711578 
	C65.443230,166.347351 72.161354,168.983124 78.879478,171.618912 
	C79.038773,171.245041 79.198074,170.871170 79.357368,170.497299 
	C80.208145,172.073608 81.058922,173.649902 81.947639,175.576797 
	C71.385605,171.919144 60.785614,167.910904 49.509251,163.646896 
	C52.820351,162.238525 55.559837,161.073273 58.631386,159.675674 
	C66.284439,155.465729 73.605423,151.488144 81.256012,147.372925 
z"/>
<path fill="#A94E4B" opacity="1.000000" stroke="none" 
	d="
M58.109459,116.040230 
	C58.425373,115.967155 58.675545,115.797279 59.210419,115.242096 
	C59.725578,114.646461 59.890297,114.339310 60.055016,114.032166 
	C60.055016,114.032166 60.022766,113.990883 60.285843,113.953506 
	C60.750069,113.631035 60.951218,113.345947 61.416462,112.979431 
	C62.138855,112.345428 62.597153,111.792847 63.055447,111.240273 
	C64.265915,109.895424 65.476379,108.550575 66.477142,106.896042 
	C66.267441,106.586365 66.338844,106.606956 66.338844,106.606956 
	C66.590286,106.790993 66.841736,106.975037 67.758392,106.956100 
	C68.932587,106.162460 69.441574,105.571823 69.950554,104.981178 
	C69.950554,104.981178 70.004448,104.996307 70.250229,104.919678 
	C70.666588,104.565071 70.837173,104.287094 71.007767,104.009117 
	C71.330025,103.938393 71.602333,103.781158 72.258202,103.224747 
	C74.768471,101.247017 76.845222,99.581970 79.061073,98.224106 
	C79.164391,99.429131 79.499939,100.706169 79.032852,101.163544 
	C75.898041,104.233208 72.609337,107.147346 69.338600,110.076241 
	C64.020882,114.838173 58.726776,119.629066 53.300503,124.264679 
	C52.373756,125.056381 50.837677,125.134827 49.713779,125.261353 
	C50.597355,124.016014 51.350243,123.052086 52.103134,122.088150 
	C52.103130,122.088150 52.009819,121.999901 52.351295,121.927917 
	C54.152817,120.256569 55.612862,118.657204 57.072906,117.057838 
	C57.072906,117.057838 57.007141,117.004166 57.286228,116.966698 
	C57.746696,116.632896 57.928074,116.336563 58.109459,116.040230 
z"/>
<path fill="#FBECE8" opacity="1.000000" stroke="none" 
	d="
M83.865692,89.309021 
	C85.774193,84.201012 90.520012,84.502556 94.760559,83.158401 
	C95.311066,83.309174 95.640381,83.636406 95.433510,83.885246 
	C93.672295,85.547852 92.117950,86.961624 90.547012,88.387611 
	C90.530411,88.399826 90.488670,88.394081 90.176865,88.529587 
	C86.938179,90.841438 84.011292,93.017799 81.084396,95.194153 
	C81.959114,93.337219 82.833824,91.480286 83.865692,89.309021 
z"/>
<path fill="#AE4847" opacity="1.000000" stroke="none" 
	d="
M81.013290,95.404938 
	C84.011292,93.017799 86.938179,90.841438 90.321739,88.918747 
	C91.146103,90.727257 92.852203,92.358002 89.550278,93.187912 
	C86.287254,94.008049 83.247688,95.717209 80.154175,96.804886 
	C80.198250,96.573402 80.224007,96.102798 80.224007,96.102798 
	C80.537872,96.050247 80.777260,95.887894 81.013290,95.404938 
z"/>
<path fill="#FBE8E8" opacity="1.000000" stroke="none" 
	d="
M51.770390,122.035629 
	C51.350243,123.052086 50.597355,124.016014 49.723061,125.285049 
	C49.601654,125.590164 49.586842,125.636360 49.350388,125.748062 
	C48.986687,126.175552 48.859444,126.491333 48.712723,126.811417 
	C48.693253,126.815720 48.659317,126.792992 48.659317,126.792999 
	C48.193806,127.055862 47.728291,127.318726 47.018822,127.687721 
	C45.054913,124.369095 46.939159,122.020950 51.770390,122.035629 
z"/>
<path fill="#FBECE8" opacity="1.000000" stroke="none" 
	d="
M79.836754,96.071686 
	C80.224007,96.102798 80.198250,96.573402 79.895767,96.856468 
	C79.369522,97.398659 79.145752,97.657791 78.921982,97.916924 
	C76.845222,99.581970 74.768471,101.247017 72.373642,103.015717 
	C72.177803,98.313065 75.415405,96.760841 79.836754,96.071686 
z"/>
<path fill="#FBE8E8" opacity="1.000000" stroke="none" 
	d="
M39.553406,135.972260 
	C38.540276,137.894913 37.162449,139.825897 35.507263,141.920319 
	C33.978985,138.729675 34.535179,137.872208 39.553406,135.972260 
z"/>
<path fill="#E1EDF1" opacity="1.000000" stroke="none" 
	d="
M97.128761,185.150055 
	C99.385780,185.738495 101.662697,186.696350 104.160614,187.873398 
	C101.970634,187.234879 99.559647,186.377167 97.128761,185.150055 
z"/>
<path fill="#FBE8E8" opacity="1.000000" stroke="none" 
	d="
M56.669033,117.036194 
	C55.612862,118.657204 54.152817,120.256569 52.389786,121.979187 
	C51.696224,118.941917 52.417706,116.694656 56.669033,117.036194 
z"/>
<path fill="#FBECE8" opacity="1.000000" stroke="none" 
	d="
M63.019287,110.910675 
	C62.597153,111.792847 62.138855,112.345428 61.122288,112.955048 
	C60.368446,113.011581 60.172871,113.011078 59.977287,113.010574 
	C60.175026,112.005508 60.372765,111.000435 60.570503,109.995369 
	C61.374710,110.190598 62.178917,110.385834 63.019287,110.910675 
z"/>
<path fill="#FBE8E8" opacity="1.000000" stroke="none" 
	d="
M46.034668,128.145508 
	C45.506626,129.398254 44.580978,130.617218 43.359829,131.987946 
	C43.921906,130.797028 44.779484,129.454376 46.034668,128.145508 
z"/>
<path fill="#E1EDF1" opacity="1.000000" stroke="none" 
	d="
M104.862579,188.718216 
	C105.564888,188.638000 106.016556,188.825058 106.779388,189.252106 
	C107.090553,189.492111 107.192421,189.901337 107.192421,189.901337 
	C106.332268,189.596039 105.472107,189.290756 104.862579,188.718216 
z"/>
<path fill="#F5EFEF" opacity="1.000000" stroke="none" 
	d="
M38.105232,161.123337 
	C38.754314,160.629013 39.547150,160.382538 40.658127,160.190613 
	C40.067177,160.620514 39.158085,160.995850 38.105232,161.123337 
z"/>
<path fill="#3E5271" opacity="1.000000" stroke="none" 
	d="
M110.633179,191.188858 
	C111.388504,191.533844 112.143822,191.878845 112.973450,192.561905 
	C112.507019,192.674683 111.966293,192.449387 111.093857,191.914185 
	C110.762146,191.604294 110.633179,191.188858 110.633179,191.188858 
z"/>
<path fill="#FBECE8" opacity="1.000000" stroke="none" 
	d="
M67.396927,98.952026 
	C67.791023,98.711792 68.183655,98.713730 68.574097,98.743973 
	C68.584969,98.744812 68.572380,99.048668 68.570732,99.211227 
	C68.178879,99.206863 67.787018,99.202492 67.396927,98.952026 
z"/>
<path fill="#FBE8E8" opacity="1.000000" stroke="none" 
	d="
M69.578690,105.038300 
	C69.441574,105.571823 68.932587,106.162460 68.187668,106.771194 
	C68.370094,106.224655 68.788460,105.660042 69.578690,105.038300 
z"/>
<path fill="#3E5271" opacity="1.000000" stroke="none" 
	d="
M107.449257,189.918976 
	C107.192421,189.901337 107.090553,189.492111 107.023468,189.292114 
	C107.474739,189.268295 107.993103,189.444489 108.366150,189.772766 
	C108.049263,189.928772 107.877678,189.932709 107.449257,189.918976 
z"/>
<path fill="#E1EDF1" opacity="1.000000" stroke="none" 
	d="
M110.357964,191.154053 
	C110.633179,191.188858 110.762146,191.604294 110.812180,191.815979 
	C110.329750,191.838745 109.797302,191.649841 109.130280,191.200745 
	C109.358055,191.000137 109.720406,191.059708 110.357964,191.154053 
z"/>
<path fill="#FBE8E8" opacity="1.000000" stroke="none" 
	d="
M66.485870,106.419792 
	C66.338844,106.606956 66.267441,106.586365 66.228745,106.611069 
	C66.337669,106.501396 66.485291,106.367012 66.485870,106.419792 
z"/>
<path fill="#FBE8E8" opacity="1.000000" stroke="none" 
	d="
M59.980988,113.268784 
	C60.172871,113.011078 60.368446,113.011581 60.858192,113.036469 
	C60.951218,113.345947 60.750069,113.631035 60.290642,113.978699 
	C60.016468,113.869858 60.000576,113.698425 59.980988,113.268784 
z"/>
<path fill="#FBE8E8" opacity="1.000000" stroke="none" 
	d="
M59.807934,114.124802 
	C59.890297,114.339310 59.725578,114.646461 59.299469,115.028931 
	C59.212337,114.808655 59.386597,114.513046 59.807934,114.124802 
z"/>
<path fill="#FBE8E8" opacity="1.000000" stroke="none" 
	d="
M57.856705,116.123825 
	C57.928074,116.336563 57.746696,116.632896 57.305336,117.004593 
	C57.231556,116.789108 57.417755,116.498268 57.856705,116.123825 
z"/>
<path fill="#F5EFEF" opacity="1.000000" stroke="none" 
	d="
M42.916916,159.855835 
	C42.925095,159.638611 43.188759,159.429596 43.714767,159.250000 
	C43.708874,159.474289 43.440636,159.669174 42.916916,159.855835 
z"/>
<path fill="#F5EFEF" opacity="1.000000" stroke="none" 
	d="
M45.897224,158.850250 
	C45.907501,158.638885 46.177521,158.431992 46.711246,158.243378 
	C46.702293,158.459351 46.429630,158.657043 45.897224,158.850250 
z"/>
<path fill="#F5EFEF" opacity="1.000000" stroke="none" 
	d="
M48.142517,157.933472 
	C48.000759,157.635742 48.197502,157.422165 48.745903,157.324142 
	C48.845573,157.600937 48.640060,157.793564 48.142517,157.933472 
z"/>
<path fill="#FBECE8" opacity="1.000000" stroke="none" 
	d="
M70.778038,104.089615 
	C70.837173,104.287094 70.666588,104.565071 70.242348,104.892822 
	C70.071655,104.610054 70.258194,104.352562 70.778038,104.089615 
z"/>
<path fill="#314162" opacity="1.000000" stroke="none" 
	d="
M127.047913,53.197720 
	C124.433884,55.066563 121.643486,56.617813 118.486954,58.180828 
	C119.202354,53.398529 122.724442,52.624565 127.047913,53.197720 
z"/>
<path fill="#314162" opacity="1.000000" stroke="none" 
	d="
M117.788048,58.092197 
	C116.025246,59.725098 113.873581,61.320694 111.368317,62.943760 
	C113.142868,61.332451 115.271027,59.693672 117.788048,58.092197 
z"/>
<path fill="#FBECE8" opacity="1.000000" stroke="none" 
	d="
M114.805489,69.138474 
	C114.449516,69.899193 113.701271,70.596031 112.469597,71.652466 
	C109.928635,73.613136 107.871094,75.214211 105.899689,76.814789 
	C105.985825,76.814285 105.817421,76.777618 105.481445,76.843704 
	C101.977097,79.151993 98.808739,81.394196 95.640381,83.636406 
	C95.640381,83.636406 95.311066,83.309174 95.146210,83.145325 
	C95.256752,81.739037 95.124107,79.804222 95.871986,79.363472 
	C101.959312,75.775887 108.211334,72.467773 114.805489,69.138474 
z"/>
<path fill="#FBECE8" opacity="1.000000" stroke="none" 
	d="
M117.783554,67.099213 
	C117.376663,67.796310 116.589973,68.449463 115.499481,69.172745 
	C115.931702,68.513657 116.667725,67.784454 117.783554,67.099213 
z"/>
<path fill="#3E5271" opacity="1.000000" stroke="none" 
	d="
M82.745766,146.390961 
	C82.842682,146.610733 82.691734,146.775650 82.311264,146.922638 
	C82.183617,146.700165 82.322334,146.510620 82.745766,146.390961 
z"/>
<path fill="#B83833" opacity="1.000000" stroke="none" 
	d="
M79.061073,98.224106 
	C79.145752,97.657791 79.369522,97.398659 79.851700,97.087952 
	C83.247688,95.717209 86.287254,94.008049 89.550278,93.187912 
	C92.852203,92.358002 91.146103,90.727257 90.633545,88.783249 
	C90.488670,88.394081 90.530411,88.399826 90.907120,88.557297 
	C95.027290,86.297966 98.891876,84.043579 102.455490,81.385658 
	C103.911697,80.299545 104.716347,78.339867 105.817413,76.777618 
	C105.817421,76.777618 105.985825,76.814285 106.286407,76.877228 
	C109.055855,75.293716 111.524727,73.647255 113.993599,72.000793 
	C118.406265,69.417328 122.795197,66.792213 127.237373,64.260529 
	C133.315994,60.796185 139.327271,57.188553 145.571121,54.047237 
	C150.516541,51.559177 155.766998,49.676872 160.886826,47.537132 
	C161.341827,47.346973 161.823334,47.188942 162.307938,47.105640 
	C169.081741,45.941296 170.233475,47.215111 168.566757,53.921192 
	C168.291412,55.029114 168.217911,56.187199 168.112732,57.735966 
	C168.174362,58.149830 168.154007,58.108086 167.775665,58.077358 
	C166.082016,59.095161 164.489716,59.935680 163.511948,61.237679 
	C161.745987,63.589249 160.266281,66.171364 158.828033,68.747101 
	C158.063049,70.117088 157.635498,71.675484 157.055649,73.148842 
	C157.033722,73.456505 156.912811,73.718460 156.112900,74.018280 
	C151.891098,75.001984 149.470505,76.860313 150.058380,81.079155 
	C150.058380,81.079155 150.004593,81.004448 149.709366,81.039536 
	C149.145157,81.551208 148.876190,82.027779 148.607208,82.504356 
	C148.607208,82.504356 148.498901,82.485313 148.180054,82.461937 
	C147.594147,82.987366 147.327087,83.536163 147.060013,84.084969 
	C147.060013,84.084969 147.008255,84.007378 146.709839,84.046021 
	C145.958939,84.750343 145.506470,85.416023 145.054001,86.081696 
	C145.054001,86.081696 145.009094,86.007210 144.646515,86.009644 
	C140.861328,86.237610 138.171082,87.073967 139.738708,91.461624 
	C139.738708,91.461624 139.602036,91.637840 139.184464,91.461288 
	C138.511139,91.192039 138.255402,91.099327 137.998199,90.616928 
	C137.926651,85.616364 134.094421,86.558960 131.150848,85.097786 
	C132.274918,88.205292 133.149185,90.622238 133.873413,93.379738 
	C133.597534,94.923134 133.471695,96.125977 133.345840,97.328812 
	C133.345840,97.328812 133.146194,96.977531 132.868103,97.075699 
	C131.439453,98.508293 130.288864,99.842735 129.138275,101.177170 
	C129.138290,101.177177 129.117722,101.168137 129.137634,101.176575 
	C127.008492,102.091835 124.859421,102.998665 122.347702,103.579300 
	C119.366547,99.597092 118.507309,99.978279 115.276367,106.457626 
	C116.255310,106.659203 117.152496,106.843948 118.049675,107.028687 
	C112.973679,111.714996 108.086868,116.629845 102.772957,121.028740 
	C96.386848,126.315208 89.637154,131.162460 82.950302,136.524200 
	C76.797188,140.009277 70.503853,142.797241 64.740723,146.427032 
	C57.848640,150.767868 51.129585,155.069244 42.821239,156.328888 
	C39.845695,156.780029 37.064190,158.511017 33.842876,159.798218 
	C32.052315,156.427841 30.660690,153.290070 33.693249,149.447357 
	C37.984413,144.009781 41.864613,138.245041 45.848392,132.569534 
	C46.970417,130.971024 47.840294,129.195511 48.742569,127.147095 
	C48.659317,126.792992 48.693253,126.815720 48.996979,126.746277 
	C49.396084,126.330002 49.491463,125.983185 49.586842,125.636360 
	C49.586842,125.636360 49.601654,125.590164 49.592373,125.566467 
	C50.837677,125.134827 52.373756,125.056381 53.300503,124.264679 
	C58.726776,119.629066 64.020882,114.838173 69.338600,110.076241 
	C72.609337,107.147346 75.898041,104.233208 79.032852,101.163544 
	C79.499939,100.706169 79.164391,99.429131 79.061073,98.224106 
z"/>
<path fill="#AE4847" opacity="1.000000" stroke="none" 
	d="
M113.644653,71.963150 
	C111.524727,73.647255 109.055855,75.293716 106.200272,76.877731 
	C107.871094,75.214211 109.928635,73.613136 112.294800,71.910774 
	C112.834198,71.848167 113.064957,71.886841 113.644653,71.963150 
z"/>
<path fill="#C1342C" opacity="1.000000" stroke="none" 
	d="
M118.336868,106.897163 
	C117.152496,106.843948 116.255310,106.659203 115.276367,106.457626 
	C118.507309,99.978279 119.366547,99.597092 121.999527,103.633720 
	C122.014008,104.014343 122.002045,104.000595 121.757607,104.166626 
	C121.341469,104.888931 121.169769,105.445206 120.998062,106.001472 
	C120.206734,106.256195 119.415398,106.510918 118.336868,106.897163 
z"/>
<path fill="#B83833" opacity="1.000000" stroke="none" 
	d="
M121.246490,105.837852 
	C121.169769,105.445206 121.341469,104.888931 121.763153,104.170502 
	C121.840393,104.563644 121.667648,105.118942 121.246490,105.837852 
z"/>
<path fill="#A94E4B" opacity="1.000000" stroke="none" 
	d="
M157.360382,72.998161 
	C157.635498,71.675484 158.063049,70.117088 158.828033,68.747101 
	C160.266281,66.171364 161.745987,63.589249 163.511948,61.237679 
	C164.489716,59.935680 166.082016,59.095161 167.784149,58.088486 
	C167.740860,59.120003 167.310745,60.109665 166.776825,61.410168 
	C163.670380,65.429832 160.667755,69.138657 157.360382,72.998161 
z"/>
<path fill="#A94E4B" opacity="1.000000" stroke="none" 
	d="
M150.373260,80.963669 
	C149.470505,76.860313 151.891098,75.001984 155.915131,74.115211 
	C154.427628,76.368446 152.557877,78.608315 150.373260,80.963669 
z"/>
<path fill="#A94E4B" opacity="1.000000" stroke="none" 
	d="
M140.009277,91.336357 
	C138.171082,87.073967 140.861328,86.237610 144.683655,86.032257 
	C144.978119,86.395264 144.872864,86.738091 144.672913,87.335800 
	C143.145416,88.797485 141.712631,90.004288 140.009277,91.336357 
z"/>
<path fill="#A94E4B" opacity="1.000000" stroke="none" 
	d="
M145.336487,85.983154 
	C145.506470,85.416023 145.958939,84.750343 146.748917,84.071472 
	C146.597275,84.667046 146.108139,85.275826 145.336487,85.983154 
z"/>
<path fill="#A94E4B" opacity="1.000000" stroke="none" 
	d="
M147.323013,83.995483 
	C147.327087,83.536163 147.594147,82.987366 148.189072,82.516182 
	C148.206619,83.031204 147.896317,83.468597 147.323013,83.995483 
z"/>
<path fill="#A94E4B" opacity="1.000000" stroke="none" 
	d="
M148.860779,82.412163 
	C148.876190,82.027779 149.145157,81.551208 149.746704,81.066467 
	C149.757645,81.478859 149.436005,81.899414 148.860779,82.412163 
z"/>
<path fill="#FEFEFE" opacity="1.000000" stroke="none" 
	d="
M155.954681,12.303292 
	C156.178192,12.096428 156.459366,12.219648 156.830658,12.626339 
	C156.657471,12.727578 156.354645,12.635434 155.954681,12.303292 
z"/>
<path fill="#A94E4B" opacity="1.000000" stroke="none" 
	d="
M133.652802,97.241776 
	C133.471695,96.125977 133.597534,94.923134 134.242249,93.370804 
	C135.499359,93.005913 136.237625,92.990509 137.142105,93.147812 
	C137.308319,93.320511 137.674255,93.630180 137.674255,93.630188 
	C136.436096,94.805038 135.197937,95.979889 133.652802,97.241776 
z"/>
<path fill="#A94E4B" opacity="1.000000" stroke="none" 
	d="
M129.455383,101.097473 
	C130.288864,99.842735 131.439453,98.508293 132.957489,97.256310 
	C132.140793,98.565102 130.956650,99.791443 129.455383,101.097473 
z"/>
<path fill="#A94E4B" opacity="1.000000" stroke="none" 
	d="
M137.999664,91.006622 
	C138.255402,91.099327 138.511139,91.192039 139.096283,91.529549 
	C138.991409,92.303093 138.557114,92.831841 137.898529,93.495384 
	C137.674255,93.630180 137.308319,93.320511 137.174896,92.855713 
	C137.360870,91.929482 137.680267,91.468056 137.999664,91.006622 
z"/>
<path fill="#3E5271" opacity="1.000000" stroke="none" 
	d="
M125.451027,168.531540 
	C125.418579,168.476822 125.483475,168.586258 125.451027,168.531540 
z"/>
<path fill="#AE4847" opacity="1.000000" stroke="none" 
	d="
M105.481438,76.843704 
	C104.716347,78.339867 103.911697,80.299545 102.455490,81.385658 
	C98.891876,84.043579 95.027290,86.297966 90.923721,88.545074 
	C92.117950,86.961624 93.672295,85.547852 95.433510,83.885246 
	C98.808739,81.394196 101.977097,79.151993 105.481438,76.843704 
z"/>
<path fill="#A94E4B" opacity="1.000000" stroke="none" 
	d="
M49.350388,125.748062 
	C49.491463,125.983185 49.396084,126.330002 49.016449,126.741974 
	C48.859444,126.491333 48.986687,126.175552 49.350388,125.748062 
z"/>
<path fill="#C13332" opacity="1.000000" stroke="none" 
	d="
M137.998199,90.616928 
	C137.680267,91.468056 137.360870,91.929482 137.008682,92.683014 
	C136.237625,92.990509 135.499359,93.005913 134.392273,93.030243 
	C133.149185,90.622238 132.274918,88.205292 131.150848,85.097786 
	C134.094421,86.558960 137.926651,85.616364 137.998199,90.616928 
z"/>
</svg>